<svg width="20" height="18" viewBox="0 0 20 18" fill="none" xmlns="http://www.w3.org/2000/svg">
<path d="M19.1667 8.99167L17.1334 6.66667L17.4167 3.59167L14.4084 2.90833L12.8334 0.25L10 1.46667L7.16671 0.25L5.59171 2.90833L2.58337 3.58333L2.86671 6.66667L0.833374 8.99167L2.86671 11.3167L2.58337 14.4L5.59171 15.0833L7.16671 17.75L10 16.525L12.8334 17.7417L14.4084 15.0833L17.4167 14.4L17.1334 11.325L19.1667 8.99167ZM15.875 10.225L15.4084 10.7667L15.475 11.475L15.625 13.1L14.0417 13.4583L13.3417 13.6167L12.975 14.2333L12.15 15.6333L10.6667 14.9917L10 14.7083L9.34171 14.9917L7.85837 15.6333L7.03337 14.2417L6.66671 13.625L5.96671 13.4667L4.38337 13.1083L4.53337 11.475L4.60004 10.7667L4.13337 10.225L3.05837 9L4.13337 7.76667L4.60004 7.225L4.52504 6.50833L4.37504 4.89167L5.95837 4.53333L6.65837 4.375L7.02504 3.75833L7.85004 2.35833L9.33337 3L10 3.28333L10.6584 3L12.1417 2.35833L12.9667 3.75833L13.3334 4.375L14.0334 4.53333L15.6167 4.89167L15.4667 6.51667L15.4 7.225L15.8667 7.76667L16.9417 8.99167L15.875 10.225Z" fill="#0094FF"/>
</svg>
