<svg width="24" height="24" viewBox="0 0 24 24" fill="none" xmlns="http://www.w3.org/2000/svg">
<path fill-rule="evenodd" clip-rule="evenodd" d="M19.9121 17.5657L20.7488 20.7083L17.6641 19.8431L16.8774 20.3061C15.4387 21.1528 13.7782 21.6428 12.0002 21.6428C6.67437 21.6428 2.35715 17.3256 2.35715 11.9996C2.35715 6.67427 6.67429 2.35707 12.0002 2.35707C17.326 2.35707 21.6429 6.67422 21.6429 11.9996C21.6429 13.7467 21.1716 15.3802 20.3538 16.7993L19.9121 17.5657ZM17.9643 22.1529C16.213 23.1836 14.1794 23.7856 12.0002 23.7856C5.49088 23.7856 0.214294 18.5091 0.214294 11.9996C0.214294 5.49074 5.49088 0.214214 12.0002 0.214214C18.5094 0.214214 23.7858 5.49074 23.7858 11.9996C23.7858 14.139 23.2072 16.1396 22.2104 17.8692L23.3026 21.9713C23.5161 22.773 22.7767 23.5026 21.9779 23.2786L17.9643 22.1529Z" fill="black"/>
</svg>
