<svg width="22" height="23" viewBox="0 0 22 23" fill="none" xmlns="http://www.w3.org/2000/svg">
<path d="M6.58168 22.7463H1.28577C0.733482 22.7463 0.285767 22.2986 0.285767 21.7463V12.2107C0.285767 11.956 0.38298 11.7108 0.557566 11.5253L10.4079 1.05936C10.8027 0.639843 11.4695 0.639843 11.8643 1.05936L21.5276 11.3266C21.7022 11.5121 21.7994 11.7572 21.7994 12.0119V21.7463C21.7994 22.2986 21.3517 22.7463 20.7994 22.7463H15.3164C14.7641 22.7463 14.3164 22.2986 14.3164 21.7463V16.3858C14.3164 16.3858 14.3164 13.4043 11.1361 13.4043C7.39461 13.4043 7.58169 16.3858 7.58169 16.3858V21.7463C7.58169 22.2986 7.13397 22.7463 6.58168 22.7463Z" fill="black"/>
</svg>
