<svg width="127" height="26" viewBox="0 0 127 26" fill="none" xmlns="http://www.w3.org/2000/svg">
<path d="M3.99219 18.9297L1.76562 19C1.41406 19 1.13672 18.918 0.933594 18.7539C0.730469 18.582 0.628906 18.3555 0.628906 18.0742C0.628906 17.793 0.746094 17.5625 0.980469 17.3828C1.22266 17.2031 1.54297 17.1133 1.94141 17.1133H2.9375V2.66406H1.94141C1.54297 2.66406 1.22266 2.57812 0.980469 2.40625C0.746094 2.23438 0.628906 2.00781 0.628906 1.72656C0.628906 1.44531 0.730469 1.21875 0.933594 1.04688C1.13672 0.867188 1.41406 0.777344 1.76562 0.777344L3.99219 0.859375L6.04297 0.777344C6.68359 0.777344 7.07812 0.96875 7.22656 1.35156C7.27344 1.46094 7.29688 1.57422 7.29688 1.69141C7.29688 2.33984 6.80469 2.66406 5.82031 2.66406H5.11719V17.1133H5.82031C6.36719 17.1133 6.75 17.2109 6.96875 17.4062C7.1875 17.5938 7.29688 17.7852 7.29688 17.9805C7.29688 18.6602 6.87891 19 6.04297 19L3.99219 18.9297ZM10.9766 19C10.2266 19 9.85156 18.7109 9.85156 18.1328C9.85156 17.8516 9.96875 17.6328 10.2031 17.4766C10.4375 17.3203 10.7617 17.2422 11.1758 17.2422H12.2188V9.60156C12.2188 9.13281 12.1172 8.89844 11.9141 8.89844C11.8047 8.89844 11.6602 8.92578 11.4805 8.98047C11.3008 9.03516 11.082 9.0625 10.8242 9.0625C10.5664 9.0625 10.3398 8.98047 10.1445 8.81641C9.94922 8.65234 9.85156 8.42969 9.85156 8.14844C9.85156 7.55469 10.2734 7.21484 11.1172 7.12891C11.5625 7.08984 11.9766 7.02344 12.3594 6.92969C12.75 6.82812 13.0938 6.77734 13.3906 6.77734C13.9609 6.77734 14.2461 7.15234 14.2461 7.90234V9.4375C14.582 8.6875 15.1328 8.07422 15.8984 7.59766C16.6641 7.11328 17.4727 6.87109 18.3242 6.87109C19.8398 6.87109 20.9141 7.25391 21.5469 8.01953C22.1797 8.78516 22.4961 9.81641 22.4961 11.1133V17.2422H23.2812C24.2656 17.2422 24.7578 17.5508 24.7578 18.168C24.7578 18.3867 24.6641 18.582 24.4766 18.7539C24.2891 18.918 23.9688 19 23.5156 19L21.4531 18.9297L19.2266 19C18.4766 19 18.1016 18.7109 18.1016 18.1328C18.1016 17.8516 18.2188 17.6328 18.4531 17.4766C18.6875 17.3203 19.0117 17.2422 19.4258 17.2422H20.4453V11.875C20.4453 10.2344 20.0312 9.25 19.2031 8.92188C18.9141 8.80469 18.5664 8.74609 18.1602 8.74609C17.3242 8.74609 16.5234 9.06641 15.7578 9.70703C15 10.3477 14.4961 11.1602 14.2461 12.1445V17.2422H15.0312C16.0156 17.2422 16.5078 17.5508 16.5078 18.168C16.5078 18.3867 16.4141 18.582 16.2266 18.7539C16.0391 18.918 15.7188 19 15.2656 19L13.2031 18.9297L10.9766 19ZM31.2266 19.1758C30.5469 19.1758 29.8906 19.1211 29.2578 19.0117C28.9375 19.5742 28.6016 19.8555 28.25 19.8555C27.75 19.8555 27.5 19.625 27.5 19.1641C27.5 18.7578 27.3945 18.3789 27.1836 18.0273C26.9805 17.6758 26.8008 17.3828 26.6445 17.1484C26.1211 16.3672 25.8594 15.8203 25.8594 15.5078C25.8594 15.1953 25.9492 14.9648 26.1289 14.8164C26.3086 14.668 26.5078 14.5938 26.7266 14.5938C27.1562 14.5938 27.543 14.9375 27.8867 15.625C28.2383 16.3047 28.6523 16.7578 29.1289 16.9844C29.6055 17.2109 30.3555 17.3242 31.3789 17.3242C32.8867 17.3242 33.8672 16.8945 34.3203 16.0352C34.4609 15.7773 34.5312 15.4961 34.5312 15.1914C34.5312 14.582 34.2656 14.1523 33.7344 13.9023C33.2031 13.6445 32.3789 13.4805 31.2617 13.4102C30.1445 13.3398 29.3203 13.2188 28.7891 13.0469C27.2422 12.5234 26.4688 11.5938 26.4688 10.2578C26.4688 9.4375 26.8984 8.69922 27.7578 8.04297C28.625 7.37891 29.8906 7.04688 31.5547 7.04688C31.9062 7.04688 32.2578 7.07812 32.6094 7.14062C32.5312 6.92188 32.4922 6.73828 32.4922 6.58984C32.4922 6.44141 32.5586 6.30469 32.6914 6.17969C32.8242 6.04688 32.9883 5.98047 33.1836 5.98047C33.3867 5.98047 33.543 6.03125 33.6523 6.13281C33.7617 6.23438 33.8867 6.42578 34.0273 6.70703C34.168 6.98047 34.4375 7.375 34.8359 7.89062C35.2344 8.39844 35.4805 8.75 35.5742 8.94531C35.6758 9.13281 35.7266 9.33594 35.7266 9.55469C35.7266 9.77344 35.6562 9.95703 35.5156 10.1055C35.3828 10.2539 35.2031 10.3281 34.9766 10.3281C34.5469 10.3281 34.1602 10.043 33.8164 9.47266C33.6445 9.18359 33.3945 8.98438 33.0664 8.875C32.7383 8.76562 32.168 8.71094 31.3555 8.71094C30.543 8.71094 29.8906 8.85938 29.3984 9.15625C28.9141 9.44531 28.6719 9.78906 28.6719 10.1875C28.6719 10.5859 28.7969 10.8633 29.0469 11.0195C29.5078 11.3164 30.2266 11.4922 31.2031 11.5469C33.0781 11.6562 34.4375 11.9766 35.2812 12.5078C36.1328 13.0391 36.5586 13.832 36.5586 14.8867C36.5586 16.2383 36.043 17.293 35.0117 18.0508C33.9805 18.8008 32.7188 19.1758 31.2266 19.1758ZM42.0664 7.12891L45.0312 7.04688C45.4922 7.04688 45.8164 7.13281 46.0039 7.30469C46.1914 7.46875 46.2852 7.67188 46.2852 7.91406C46.2852 8.15625 46.1797 8.37109 45.9688 8.55859C45.7578 8.74609 45.4375 8.83984 45.0078 8.83984C44.5859 8.83984 43.9961 8.82031 43.2383 8.78125L42.0664 8.74609V14.3711C42.0664 15.5352 42.1484 16.2773 42.3125 16.5977C42.4844 16.918 42.6523 17.1172 42.8164 17.1953C42.9883 17.2734 43.2461 17.3125 43.5898 17.3125C43.9336 17.3125 44.2578 17.1758 44.5625 16.9023C44.8672 16.6211 45.0898 16.4375 45.2305 16.3516C45.3789 16.2578 45.5664 16.2109 45.793 16.2109C46.0273 16.2109 46.2227 16.3008 46.3789 16.4805C46.543 16.6602 46.625 16.8711 46.625 17.1133C46.625 17.6211 46.3047 18.0938 45.6641 18.5312C45.0312 18.9609 44.3633 19.1758 43.6602 19.1758C42.4336 19.1758 41.5195 18.8594 40.918 18.2266C40.3242 17.5859 40.0273 16.7461 40.0273 15.707V8.82812C39.7539 8.85156 39.4531 8.86328 39.125 8.86328C38.8047 8.86328 38.5391 8.77734 38.3281 8.60547C38.125 8.43359 38.0234 8.21094 38.0234 7.9375C38.0234 7.65625 38.125 7.4375 38.3281 7.28125C38.5391 7.125 38.793 7.04688 39.0898 7.04688C39.3945 7.04688 39.7031 7.05469 40.0156 7.07031C40.0078 6.8125 40 6.50781 39.9922 6.15625L39.9453 5.125C39.9375 4.78125 39.9258 4.47656 39.9102 4.21094C39.9023 3.94531 39.8984 3.76953 39.8984 3.68359C39.8984 3.28516 40.0078 2.98828 40.2266 2.79297C40.4453 2.59766 40.7188 2.5 41.0469 2.5C41.7969 2.5 42.1719 2.93359 42.1719 3.80078L42.0664 7.12891ZM56.7031 14.125C55.4375 13.8828 54.3125 13.7617 53.3281 13.7617C52.3516 13.7617 51.6289 13.957 51.1602 14.3477C50.6992 14.7305 50.4688 15.168 50.4688 15.6602C50.4688 16.1523 50.6836 16.5586 51.1133 16.8789C51.543 17.1914 52.1445 17.3477 52.918 17.3477C54.5039 17.3477 55.7656 16.8359 56.7031 15.8125V14.125ZM56.9727 17.6289C56.1133 18.6602 54.6875 19.1758 52.6953 19.1758C51.3672 19.1758 50.3086 18.8711 49.5195 18.2617C48.7383 17.6523 48.3477 16.8281 48.3477 15.7891C48.3477 14.0625 49.3047 12.9375 51.2188 12.4141C51.8672 12.2422 52.7031 12.1562 53.7266 12.1562C54.7578 12.1562 55.75 12.2734 56.7031 12.5078V11.2188C56.7031 9.92969 56.1875 9.14062 55.1562 8.85156C54.7891 8.74219 54.2969 8.6875 53.6797 8.6875C52.3594 8.6875 51.5977 9.03906 51.3945 9.74219C51.2695 10.1172 51.0469 10.3867 50.7266 10.5508C50.5859 10.6211 50.4258 10.6562 50.2461 10.6562C49.5039 10.6562 49.1328 10.2578 49.1328 9.46094C49.1328 8.78125 49.5781 8.17969 50.4688 7.65625C51.3672 7.13281 52.5039 6.87109 53.8789 6.87109C56.207 6.87109 57.7109 7.69531 58.3906 9.34375C58.6172 9.90625 58.7305 10.5703 58.7305 11.3359V14.3711C58.7305 15.4336 58.7734 16.1484 58.8594 16.5156C58.9453 16.875 59.1055 17.1289 59.3398 17.2773C59.7539 17.543 59.9609 17.8516 59.9609 18.2031C59.9609 18.8516 59.5508 19.1758 58.7305 19.1758C57.918 19.1758 57.332 18.6602 56.9727 17.6289ZM70.9531 15.9648V9.97656C70.9531 9.85938 70.9609 9.74609 70.9766 9.63672C70.1719 8.99609 69.2266 8.67578 68.1406 8.67578C67.0547 8.67578 66.1211 9.10156 65.3398 9.95312C64.5586 10.8047 64.168 11.7852 64.168 12.8945C64.168 14.332 64.5234 15.4297 65.2344 16.1875C65.9453 16.9453 66.8789 17.3242 68.0352 17.3242C69.1914 17.3242 70.1641 16.8711 70.9531 15.9648ZM71.4805 7.84375C71.8477 7.19531 72.3906 6.87109 73.1094 6.87109C73.8281 6.87109 74.1875 7.21094 74.1875 7.89062C74.1875 8.21875 74.0273 8.48828 73.707 8.69922C73.3945 8.90234 73.1953 9.19141 73.1094 9.56641C73.0312 9.93359 72.9922 10.6406 72.9922 11.6875V18.8945C72.9922 20.8242 72.5117 22.3516 71.5508 23.4766C70.5898 24.6094 69.3086 25.1758 67.707 25.1758C66.3945 25.1758 65.3555 24.8867 64.5898 24.3086C63.8242 23.7305 63.4414 23.0156 63.4414 22.1641C63.4414 21.5547 63.6055 21.0391 63.9336 20.6172C64.2617 20.2031 64.6836 19.9961 65.1992 19.9961C65.5039 19.9961 65.7812 20.0977 66.0312 20.3008C66.2891 20.5039 66.418 20.7227 66.418 20.957C66.418 21.1914 66.3789 21.3594 66.3008 21.4609C66.2227 21.5625 66.1367 21.6562 66.043 21.7422C65.957 21.8281 65.8594 21.9062 65.75 21.9766C65.6406 22.0547 65.5859 22.1562 65.5859 22.2812C65.5859 22.5703 65.7539 22.8086 66.0898 22.9961C66.4336 23.1836 66.9141 23.2773 67.5312 23.2773C68.6484 23.2773 69.4961 22.9062 70.0742 22.1641C70.6602 21.4297 70.9531 20.3906 70.9531 19.0469V18.0039C70.0859 18.7852 69.0469 19.1758 67.8359 19.1758C66.2266 19.1758 64.8711 18.6328 63.7695 17.5469C62.668 16.4609 62.1172 14.9922 62.1172 13.1406C62.1172 11.2812 62.7031 9.77344 63.875 8.61719C65.0469 7.45312 66.5352 6.87109 68.3398 6.87109C69.2617 6.87109 70.0938 7.05469 70.8359 7.42188C71.0781 7.53906 71.293 7.67969 71.4805 7.84375ZM82.8945 19L79.8594 18.9297C79.5078 18.9297 79.25 18.9336 79.0859 18.9414L78.5703 18.9648C78.1797 18.9883 77.8359 19 77.5391 19C76.7812 19 76.4023 18.7109 76.4023 18.1328C76.4023 17.8516 76.5195 17.6328 76.7539 17.4766C76.9961 17.3203 77.3164 17.2422 77.7148 17.2422H78.7695V9.60156C78.7695 9.13281 78.668 8.89844 78.4648 8.89844C78.3711 8.89844 78.2227 8.92578 78.0195 8.98047C77.8242 9.03516 77.6016 9.0625 77.3516 9.0625C77.1094 9.0625 76.8906 8.98047 76.6953 8.81641C76.5 8.65234 76.4023 8.42969 76.4023 8.14844C76.4023 7.55469 76.8242 7.21484 77.668 7.12891C78.1914 7.08203 78.6172 7.01172 78.9453 6.91797C79.2812 6.82422 79.6055 6.77734 79.918 6.77734C80.5039 6.77734 80.7969 7.15234 80.7969 7.90234V9.70703C81.4062 8.36328 82.4062 7.48438 83.7969 7.07031C84.2422 6.9375 84.6875 6.87109 85.1328 6.87109C85.9688 6.87109 86.6406 7.07031 87.1484 7.46875C87.6641 7.85938 87.9219 8.42188 87.9219 9.15625C87.9219 9.89062 87.793 10.4531 87.5352 10.8438C87.2773 11.2344 86.9336 11.4297 86.5039 11.4297C85.832 11.4297 85.4961 11.125 85.4961 10.5156C85.4961 10.3906 85.5078 10.2891 85.5312 10.2109L85.625 9.95312C85.6953 9.75781 85.7305 9.55859 85.7305 9.35547C85.7305 8.91016 85.3516 8.6875 84.5938 8.6875C83.8359 8.6875 83.0938 9.11719 82.3672 9.97656C81.6484 10.8359 81.125 11.9688 80.7969 13.375V17.2422H82.6953C83.6953 17.2422 84.1953 17.5508 84.1953 18.168C84.1953 18.3867 84.0977 18.582 83.9023 18.7539C83.7148 18.918 83.3789 19 82.8945 19ZM98.6328 14.125C97.3672 13.8828 96.2422 13.7617 95.2578 13.7617C94.2812 13.7617 93.5586 13.957 93.0898 14.3477C92.6289 14.7305 92.3984 15.168 92.3984 15.6602C92.3984 16.1523 92.6133 16.5586 93.043 16.8789C93.4727 17.1914 94.0742 17.3477 94.8477 17.3477C96.4336 17.3477 97.6953 16.8359 98.6328 15.8125V14.125ZM98.9023 17.6289C98.043 18.6602 96.6172 19.1758 94.625 19.1758C93.2969 19.1758 92.2383 18.8711 91.4492 18.2617C90.668 17.6523 90.2773 16.8281 90.2773 15.7891C90.2773 14.0625 91.2344 12.9375 93.1484 12.4141C93.7969 12.2422 94.6328 12.1562 95.6562 12.1562C96.6875 12.1562 97.6797 12.2734 98.6328 12.5078V11.2188C98.6328 9.92969 98.1172 9.14062 97.0859 8.85156C96.7188 8.74219 96.2266 8.6875 95.6094 8.6875C94.2891 8.6875 93.5273 9.03906 93.3242 9.74219C93.1992 10.1172 92.9766 10.3867 92.6562 10.5508C92.5156 10.6211 92.3555 10.6562 92.1758 10.6562C91.4336 10.6562 91.0625 10.2578 91.0625 9.46094C91.0625 8.78125 91.5078 8.17969 92.3984 7.65625C93.2969 7.13281 94.4336 6.87109 95.8086 6.87109C98.1367 6.87109 99.6406 7.69531 100.32 9.34375C100.547 9.90625 100.66 10.5703 100.66 11.3359V14.3711C100.66 15.4336 100.703 16.1484 100.789 16.5156C100.875 16.875 101.035 17.1289 101.27 17.2773C101.684 17.543 101.891 17.8516 101.891 18.2031C101.891 18.8516 101.48 19.1758 100.66 19.1758C99.8477 19.1758 99.2617 18.6602 98.9023 17.6289ZM109.379 19L107.094 18.9297L105.91 18.9648C105.605 18.9883 105.258 19 104.867 19C104.117 19 103.742 18.7109 103.742 18.1328C103.742 17.8516 103.859 17.6328 104.094 17.4766C104.328 17.3203 104.652 17.2422 105.066 17.2422H106.098V9.60156C106.098 9.13281 106.004 8.89844 105.816 8.89844C105.699 8.89844 105.547 8.92578 105.359 8.98047C105.18 9.03516 104.961 9.0625 104.703 9.0625C104.445 9.0625 104.219 8.98047 104.023 8.81641C103.836 8.65234 103.742 8.42969 103.742 8.14844C103.742 7.54688 104.168 7.20703 105.02 7.12891C105.535 7.08203 105.957 7.01172 106.285 6.91797C106.613 6.82422 106.883 6.77734 107.094 6.77734C107.805 6.77734 108.16 7.15234 108.16 7.90234V9.22656C108.574 8.52344 109.145 7.95703 109.871 7.52734C110.605 7.08984 111.324 6.87109 112.027 6.87109C114.145 6.87109 115.48 7.70703 116.035 9.37891C116.426 8.63672 117 8.03516 117.758 7.57422C118.516 7.10547 119.273 6.87109 120.031 6.87109C121.469 6.87109 122.535 7.24609 123.23 7.99609C123.934 8.73828 124.285 9.73828 124.285 10.9961V17.3008L125.07 17.3125C126.055 17.3125 126.547 17.6211 126.547 18.2383C126.547 18.457 126.453 18.6523 126.266 18.8242C126.078 18.9883 125.832 19.0703 125.527 19.0703C124.77 19.0703 124.262 19.0469 124.004 19C123.746 18.9531 123.484 18.9297 123.219 18.9297C122.953 18.9297 122.734 18.9336 122.562 18.9414L122.047 18.9648C121.766 18.9883 121.406 19 120.969 19C120.211 19 119.832 18.7109 119.832 18.1328C119.832 17.8516 119.949 17.6328 120.184 17.4766C120.426 17.3203 120.746 17.2422 121.145 17.2422L122.258 17.2656V11.7578C122.258 9.75 121.48 8.74609 119.926 8.74609C119.215 8.74609 118.488 9.09766 117.746 9.80078C117.012 10.5039 116.52 11.3672 116.27 12.3906V17.2422H117.055C118.039 17.2422 118.531 17.5508 118.531 18.168C118.531 18.3867 118.438 18.582 118.25 18.7539C118.062 18.918 117.816 19 117.512 19L115.285 18.9297C114.957 18.9297 114.711 18.9336 114.547 18.9414L114.031 18.9648C113.656 18.9883 113.301 19 112.965 19C112.637 19 112.363 18.9258 112.145 18.7773C111.934 18.6289 111.828 18.4141 111.828 18.1328C111.828 17.8516 111.953 17.6328 112.203 17.4766C112.453 17.3203 112.785 17.2422 113.199 17.2422H114.242V11.7578C114.242 9.75 113.453 8.74609 111.875 8.74609C111.156 8.74609 110.418 9.09766 109.66 9.80078C108.91 10.5039 108.41 11.3672 108.16 12.3906V17.2422H108.922C109.906 17.2422 110.398 17.5508 110.398 18.168C110.398 18.3867 110.305 18.582 110.117 18.7539C109.93 18.918 109.684 19 109.379 19Z" fill="black"/>
</svg>
