<svg width="24" height="24" viewBox="0 0 24 24" fill="none" xmlns="http://www.w3.org/2000/svg">
<path fill-rule="evenodd" clip-rule="evenodd" d="M16.6691 9.83456C16.6691 13.6092 13.6092 16.6691 9.83456 16.6691C6.05994 16.6691 3 13.6092 3 9.83456C3 6.05994 6.05994 3 9.83456 3C13.6092 3 16.6691 6.05994 16.6691 9.83456ZM15.6471 17.7684C14.0188 18.9634 12.0091 19.6691 9.83456 19.6691C4.40308 19.6691 0 15.266 0 9.83456C0 4.40308 4.40308 0 9.83456 0C15.266 0 19.6691 4.40308 19.6691 9.83456C19.6691 12.0091 18.9634 14.0188 17.7684 15.6471L23.097 20.9757C23.6828 21.5615 23.6828 22.5112 23.097 23.097C22.5112 23.6828 21.5615 23.6828 20.9757 23.097L15.6471 17.7684Z" fill="black" fill-opacity="0.41"/>
</svg>
