<svg width="23" height="25" viewBox="0 0 23 25" fill="none" xmlns="http://www.w3.org/2000/svg">
<path d="M6.44556 14.0887L9.32236 9.0255C9.39816 8.89209 9.57528 8.85809 9.69509 8.95394L12.7555 11.4022C12.8466 11.4751 12.976 11.4751 13.0671 11.4022L16.3951 8.73988C16.5069 8.65041 16.6567 8.7892 16.5761 8.90755L13.063 14.06C12.9812 14.1801 12.8145 14.2051 12.701 14.1143L9.63759 11.6636C9.53985 11.5854 9.3993 11.5917 9.309 11.6784L6.64039 14.2403C6.53662 14.3399 6.3745 14.2137 6.44556 14.0887Z" fill="black"/>
<path fill-rule="evenodd" clip-rule="evenodd" d="M0.214355 11.5335C0.214355 14.9005 1.68605 17.9231 4.01394 19.9939L3.61523 24.5512L8.27812 22.3768C9.31124 22.6867 10.4047 22.8526 11.5335 22.8526C17.7849 22.8526 22.8526 17.7849 22.8526 11.5335C22.8526 5.28211 17.7849 0.214355 11.5335 0.214355C5.28211 0.214355 0.214355 5.28211 0.214355 11.5335ZM8.1477 19.6852C8.43194 19.8034 8.72369 19.9071 9.02204 19.9955C9.81804 20.2314 10.661 20.3581 11.5335 20.3581C16.4072 20.3581 20.3581 16.4072 20.3581 11.5335C20.3581 6.65984 16.4072 2.70895 11.5335 2.70895C6.65984 2.70895 2.70895 6.65984 2.70895 11.5335C2.70895 14.1421 3.84084 16.4864 5.64029 18.1019C5.94721 18.3775 6.27356 18.6318 6.61703 18.8627L6.47691 20.4643L8.1477 19.6852Z" fill="black"/>
</svg>
