<svg width="48" height="48" viewBox="0 0 48 48" fill="none" xmlns="http://www.w3.org/2000/svg">
<path d="M25.8541 12.1925C25.8541 11.009 24.8947 10.0496 23.7112 10.0496C22.5278 10.0496 21.5684 11.009 21.5684 12.1925V21.8353L11.9255 21.8353C10.7421 21.8353 9.78266 22.7947 9.78266 23.9782C9.78266 25.1616 10.7421 26.121 11.9255 26.121L21.5684 26.121V35.7639C21.5684 36.9473 22.5278 37.9067 23.7112 37.9067C24.8947 37.9067 25.8541 36.9473 25.8541 35.7639V26.121H35.497C36.6804 26.121 37.6398 25.1616 37.6398 23.9782C37.6398 22.7947 36.6804 21.8353 35.497 21.8353H25.8541V12.1925Z" fill="black" fill-opacity="0.39"/>
<path fill-rule="evenodd" clip-rule="evenodd" d="M0.428589 13.2859C0.428589 6.18505 6.18493 0.428711 13.2857 0.428711H34.7143C41.8151 0.428711 47.5714 6.18505 47.5714 13.2859V34.7144C47.5714 41.8152 41.8151 47.5716 34.7143 47.5716H13.2857C6.18493 47.5716 0.428589 41.8152 0.428589 34.7144V13.2859ZM13.2857 4.71443H34.7143C39.4482 4.71443 43.2857 8.55198 43.2857 13.2859V34.7144C43.2857 39.4483 39.4482 43.2859 34.7143 43.2859H13.2857C8.55186 43.2859 4.7143 39.4483 4.7143 34.7144V13.2859C4.7143 8.55198 8.55186 4.71443 13.2857 4.71443Z" fill="black" fill-opacity="0.39"/>
</svg>
