<svg width="25" height="25" viewBox="0 0 25 25" fill="none" xmlns="http://www.w3.org/2000/svg">
<path fill-rule="evenodd" clip-rule="evenodd" d="M1.98636 7.22921C-0.215982 7.96614 -0.295191 11.0521 1.86647 11.901L9.74418 14.9948C9.87287 15.0453 9.97471 15.1471 10.0252 15.2758L13.119 23.1536C13.9679 25.3152 17.0539 25.236 17.7908 23.0337L24.1562 4.01039C24.8072 2.06504 22.955 0.212845 21.0096 0.863782L1.98636 7.22921ZM2.59351 10.0497C2.16119 9.87994 2.17702 9.26275 2.61749 9.11536L20.1371 3.25307L10.31 13.0802L2.59351 10.0497ZM11.8094 14.3936C11.8335 14.4444 11.8559 14.4961 11.8765 14.5488L14.9703 22.4265C15.1401 22.8588 15.7573 22.843 15.9047 22.4025L21.9917 4.21133L11.8094 14.3936Z" fill="black"/>
</svg>
