<svg width="30" height="30" viewBox="0 0 30 30" fill="none" xmlns="http://www.w3.org/2000/svg">
<mask id="path-1-inside-1_895_504" fill="white">
<path fill-rule="evenodd" clip-rule="evenodd" d="M10.343 3.21436H14.7985L14.8561 3.31146L17.3184 7.46291L17.3202 7.46601L18.0762 8.76199H13.5477L12.3111 6.64203L10.343 3.21436ZM3.3651 8.76199C3.8951 6.25012 5.772 4.23483 8.20485 3.50704L10.5784 7.64088L10.5784 7.64089L10.5818 7.64682L11.2323 8.76199H3.3651ZM3.21423 19.7858V10.762H12.9422H26.7857V19.7858C26.7857 23.6518 23.6517 26.7858 19.7857 26.7858H10.2142C6.34824 26.7858 3.21423 23.6518 3.21423 19.7858ZM19.7857 3.21436C23.1537 3.21436 25.9661 5.59298 26.6348 8.76199H20.3916L20.3536 8.6969L19.0441 6.452L19.0441 6.45199L19.0404 6.44574L17.1238 3.21436H19.7857ZM13.9063 13.7576C13.249 13.3985 12.4447 13.8628 12.4271 14.6116L12.2908 20.3975C12.2725 21.1776 13.1148 21.6772 13.7905 21.287L19.0056 18.2761C19.6814 17.8859 19.6699 16.9066 18.9851 16.5325L13.9063 13.7576Z"/>
</mask>
<path fill-rule="evenodd" clip-rule="evenodd" d="M10.343 3.21436H14.7985L14.8561 3.31146L17.3184 7.46291L17.3202 7.46601L18.0762 8.76199H13.5477L12.3111 6.64203L10.343 3.21436ZM3.3651 8.76199C3.8951 6.25012 5.772 4.23483 8.20485 3.50704L10.5784 7.64088L10.5784 7.64089L10.5818 7.64682L11.2323 8.76199H3.3651ZM3.21423 19.7858V10.762H12.9422H26.7857V19.7858C26.7857 23.6518 23.6517 26.7858 19.7857 26.7858H10.2142C6.34824 26.7858 3.21423 23.6518 3.21423 19.7858ZM19.7857 3.21436C23.1537 3.21436 25.9661 5.59298 26.6348 8.76199H20.3916L20.3536 8.6969L19.0441 6.452L19.0441 6.45199L19.0404 6.44574L17.1238 3.21436H19.7857ZM13.9063 13.7576C13.249 13.3985 12.4447 13.8628 12.4271 14.6116L12.2908 20.3975C12.2725 21.1776 13.1148 21.6772 13.7905 21.287L19.0056 18.2761C19.6814 17.8859 19.6699 16.9066 18.9851 16.5325L13.9063 13.7576Z" fill="black"/>
<path d="M14.7985 3.21436L16.5187 2.19408L15.9376 1.21436H14.7985V3.21436ZM10.343 3.21436V1.21436H6.88845L8.60859 4.21022L10.343 3.21436ZM14.8561 3.31146L16.5762 2.29119V2.29119L14.8561 3.31146ZM17.3184 7.46291L19.0386 6.44277L19.0385 6.44264L17.3184 7.46291ZM17.3202 7.46601L19.0478 6.4583L19.0441 6.45207L19.0405 6.44587L17.3202 7.46601ZM18.0762 8.76199V10.762H21.5582L19.8037 7.75428L18.0762 8.76199ZM13.5477 8.76199L11.8202 9.76974L12.399 10.762H13.5477V8.76199ZM12.3111 6.64203L10.5766 7.63791L10.5835 7.64977L12.3111 6.64203ZM8.20485 3.50704L9.93928 2.51118L9.15009 1.13669L7.63164 1.59094L8.20485 3.50704ZM3.3651 8.76199L1.40819 8.34909L0.899061 10.762H3.3651V8.76199ZM10.5784 7.64088L11.5707 9.37736L13.3107 8.38304L12.3128 6.64502L10.5784 7.64088ZM10.5784 7.64089L9.58608 5.9044L7.83414 6.90551L8.85073 8.64851L10.5784 7.64089ZM10.5818 7.64682L8.85418 8.65444L8.85426 8.65456L10.5818 7.64682ZM11.2323 8.76199V10.762H14.7144L12.9599 7.75425L11.2323 8.76199ZM3.21423 10.762V8.76199H1.21423V10.762H3.21423ZM26.7857 10.762H28.7857V8.76199H26.7857V10.762ZM26.6348 8.76199V10.762H29.1008L28.5917 8.34909L26.6348 8.76199ZM20.3916 8.76199L18.664 9.76972L19.2428 10.762H20.3916V8.76199ZM20.3536 8.6969L22.0812 7.68917L22.0811 7.68916L20.3536 8.6969ZM19.0441 6.452L18.0363 4.72444L16.3088 5.73219L17.3165 7.45974L19.0441 6.452ZM19.0441 6.45199L20.0518 8.17955L21.7919 7.16449L20.7643 5.43178L19.0441 6.45199ZM19.0404 6.44574L20.7606 5.42553L20.7606 5.42546L19.0404 6.44574ZM17.1238 3.21436V1.21436H13.6122L15.4036 4.23463L17.1238 3.21436ZM12.4271 14.6116L10.4277 14.5645V14.5645L12.4271 14.6116ZM13.9063 13.7576L14.8652 12.0025L14.8652 12.0025L13.9063 13.7576ZM12.2908 20.3975L10.2914 20.3504L12.2908 20.3975ZM13.7905 21.287L12.7905 19.555L12.7905 19.555L13.7905 21.287ZM19.0056 18.2761L18.0056 16.544H18.0056L19.0056 18.2761ZM18.9851 16.5325L19.9441 14.7774V14.7774L18.9851 16.5325ZM14.7985 1.21436H10.343V5.21436H14.7985V1.21436ZM16.5762 2.29119L16.5187 2.19408L13.0783 4.23463L13.1359 4.33173L16.5762 2.29119ZM19.0385 6.44264L16.5762 2.29119L13.1359 4.33173L15.5982 8.48318L19.0385 6.44264ZM19.0405 6.44587L19.0386 6.44277L15.5981 8.48305L15.5999 8.48615L19.0405 6.44587ZM19.8037 7.75428L19.0478 6.4583L15.5926 8.47372L16.3486 9.76971L19.8037 7.75428ZM13.5477 10.762H18.0762V6.76199H13.5477V10.762ZM10.5835 7.64977L11.8202 9.76974L15.2753 7.75425L14.0387 5.63428L10.5835 7.64977ZM8.60859 4.21022L10.5767 7.63789L14.0455 5.64617L12.0775 2.21849L8.60859 4.21022ZM7.63164 1.59094C4.50248 2.52703 2.09055 5.11512 1.40819 8.34909L5.32201 9.1749C5.69965 7.38512 7.04151 5.94262 8.77805 5.42314L7.63164 1.59094ZM12.3128 6.64502L9.93928 2.51118L6.47041 4.5029L8.84394 8.63674L12.3128 6.64502ZM11.5706 9.37738L11.5707 9.37736L9.5861 5.90439L9.58608 5.9044L11.5706 9.37738ZM12.3094 6.6392L12.306 6.63327L8.85073 8.64851L8.85418 8.65444L12.3094 6.6392ZM12.9599 7.75425L12.3094 6.63908L8.85426 8.65456L9.50477 9.76974L12.9599 7.75425ZM3.3651 10.762H11.2323V6.76199H3.3651V10.762ZM1.21423 10.762V19.7858H5.21423V10.762H1.21423ZM12.9422 8.76199H3.21423V12.762H12.9422V8.76199ZM26.7857 8.76199H12.9422V12.762H26.7857V8.76199ZM28.7857 19.7858V10.762H24.7857V19.7858H28.7857ZM19.7857 28.7858C24.7562 28.7858 28.7857 24.7563 28.7857 19.7858H24.7857C24.7857 22.5472 22.5471 24.7858 19.7857 24.7858V28.7858ZM10.2142 28.7858H19.7857V24.7858H10.2142V28.7858ZM1.21423 19.7858C1.21423 24.7563 5.24368 28.7858 10.2142 28.7858V24.7858C7.45281 24.7858 5.21423 22.5472 5.21423 19.7858H1.21423ZM28.5917 8.34909C27.7319 4.27397 24.1184 1.21436 19.7857 1.21436V5.21436C22.189 5.21436 24.2004 6.91199 24.6779 9.1749L28.5917 8.34909ZM20.3916 10.762H26.6348V6.76199H20.3916V10.762ZM18.626 9.70463L18.664 9.76972L22.1191 7.75427L22.0812 7.68917L18.626 9.70463ZM17.3165 7.45974L18.626 9.70464L22.0811 7.68916L20.7716 5.44426L17.3165 7.45974ZM18.0363 4.72443L18.0363 4.72444L20.0518 8.17956L20.0518 8.17955L18.0363 4.72443ZM17.3202 7.46594L17.3239 7.4722L20.7643 5.43178L20.7606 5.42553L17.3202 7.46594ZM15.4036 4.23463L17.3202 7.46601L20.7606 5.42546L18.844 2.19408L15.4036 4.23463ZM19.7857 1.21436H17.1238V5.21436H19.7857V1.21436ZM14.4265 14.6587C14.4089 15.4075 13.6047 15.8719 12.9474 15.5127L14.8652 12.0025C12.8933 10.9251 10.4806 12.3181 10.4277 14.5645L14.4265 14.6587ZM14.2903 20.4446L14.4265 14.6587L10.4277 14.5645L10.2914 20.3504L14.2903 20.4446ZM12.7905 19.555C13.4663 19.1648 14.3086 19.6645 14.2903 20.4446L10.2914 20.3504C10.2363 22.6906 12.7632 24.1896 14.7905 23.0191L12.7905 19.555ZM18.0056 16.544L12.7905 19.555L14.7905 23.0191L20.0056 20.0082L18.0056 16.544ZM18.0262 18.2876C17.3414 17.9135 17.3299 16.9342 18.0056 16.544L20.0056 20.0082C22.0329 18.8377 21.9983 15.8998 19.9441 14.7774L18.0262 18.2876ZM12.9474 15.5127L18.0262 18.2876L19.9441 14.7774L14.8652 12.0025L12.9474 15.5127Z" fill="black" mask="url(#path-1-inside-1_895_504)"/>
</svg>
